<svg width="46" height="60" viewBox="0 0 46 60" fill="none" xmlns="http://www.w3.org/2000/svg">
<rect width="46" height="60" fill="#E6E8EC"/>
<rect x="8" y="15" width="30" height="30" rx="15" fill="white"/>
<path d="M16.7129 35H15.7637V28.9297C15.7637 28.6992 15.7637 28.502 15.7637 28.3379C15.7676 28.1699 15.7715 28.0176 15.7754 27.8809C15.7832 27.7402 15.793 27.5977 15.8047 27.4531C15.6836 27.5781 15.5703 27.6855 15.4648 27.7754C15.3594 27.8613 15.2285 27.9688 15.0723 28.0977L14.0938 28.8828L13.584 28.2207L15.9043 26.4336H16.7129V35ZM25.5723 35H19.959V34.1855L22.25 31.8594C22.6758 31.4297 23.0332 31.0469 23.3223 30.7109C23.6152 30.375 23.8379 30.0449 23.9902 29.7207C24.1426 29.3926 24.2188 29.0332 24.2188 28.6426C24.2188 28.1582 24.0742 27.7891 23.7852 27.5352C23.5 27.2773 23.123 27.1484 22.6543 27.1484C22.2441 27.1484 21.8809 27.2188 21.5645 27.3594C21.248 27.5 20.9238 27.6992 20.5918 27.957L20.0703 27.3008C20.2969 27.1094 20.543 26.9395 20.8086 26.791C21.0781 26.6426 21.3652 26.5254 21.6699 26.4395C21.9785 26.3535 22.3066 26.3105 22.6543 26.3105C23.1816 26.3105 23.6367 26.4023 24.0195 26.5859C24.4023 26.7695 24.6973 27.0312 24.9043 27.3711C25.1152 27.7109 25.2207 28.1152 25.2207 28.584C25.2207 29.0371 25.1309 29.459 24.9512 29.8496C24.7715 30.2363 24.5195 30.6211 24.1953 31.0039C23.8711 31.3828 23.4922 31.7852 23.0586 32.2109L21.1953 34.0684V34.1094H25.5723V35ZM30.0547 30.3711H32.4688V31.168H30.0547V33.6523H29.252V31.168H26.8379V30.3711H29.252V27.875H30.0547V30.3711Z" fill="#A1A6B4"/>
</svg>
